<svg width="54" height="44" viewBox="0 0 54 44" fill="none" xmlns="http://www.w3.org/2000/svg">
<path d="M0 19.5C0 17.8431 1.34315 16.5 3 16.5H44C49.5228 16.5 54 20.9772 54 26.5V40.5C54 42.1569 52.6569 43.5 51 43.5H10C4.47715 43.5 0 39.0228 0 33.5V19.5Z" fill="#040404"/>
<path d="M5.634 0.809999C8.838 0.809999 11.286 1.422 11.286 5.256C11.286 9.108 8.838 9.72 5.634 9.72H3.96V13.5H1.08V0.809999H5.634ZM3.96 7.2H5.814C7.524 7.2 8.406 7.02 8.406 5.256C8.406 3.51 7.524 3.33 5.814 3.33H3.96V7.2ZM17.3063 11.16C18.8723 11.16 19.8983 10.332 19.8983 7.776V4.41H22.7783V13.5H19.8983V12.402L20.4383 10.782H19.7183C19.3583 12.402 18.2243 13.68 16.2803 13.68C13.9583 13.68 12.5543 12.132 12.5543 9.324V4.41H15.4343V8.874C15.4343 10.53 15.9203 11.16 17.3063 11.16ZM36.3808 4.23C38.7028 4.23 39.4048 6.318 39.4048 8.766V13.5H36.5248V8.964C36.5248 7.236 36.2368 6.75 35.1748 6.75C33.6088 6.75 33.2488 8.118 33.2488 10.314V13.5H30.3688V8.964C30.3688 7.236 30.0808 6.75 29.0188 6.75C27.4528 6.75 27.0928 8.118 27.0928 10.314V13.5H24.2128V4.41H27.0928V5.328L26.5528 6.948H27.2728C27.6328 5.328 28.4608 4.23 30.2248 4.23C31.9348 4.23 32.6548 5.364 32.9248 6.948H33.4468C33.8068 5.328 34.6168 4.23 36.3808 4.23ZM40.8417 16.92V4.41H43.7217V4.968L43.1817 6.588H43.9017C44.3697 5.382 45.2337 4.23 47.4837 4.23C50.1117 4.23 51.4257 6.39 51.4257 8.964C51.4257 11.538 50.1117 13.68 47.4837 13.68C45.2337 13.68 44.3697 12.528 43.9017 11.322H43.1817L43.7217 12.942V16.92H40.8417ZM43.7217 8.964C43.7217 10.512 44.5857 11.16 46.1337 11.16C47.6817 11.16 48.5457 10.512 48.5457 8.964C48.5457 7.416 47.6817 6.75 46.1337 6.75C44.5857 6.75 43.7217 7.416 43.7217 8.964Z" fill="#040404"/>
<path d="M11.6141 32.2612C11.6141 33.9694 10.4141 35.1412 7.35059 35.1412C3.76471 35.1412 2.42353 33.6729 2.42353 31.16H4.68235C4.68235 32.6847 5.44471 33.1647 7.42118 33.1647C8.87529 33.1647 9.35529 32.8259 9.35529 32.2894C9.35529 31.5694 8.14118 31.2447 6.68706 30.7506C4.58353 30.0447 2.87529 29.48 2.87529 27.5318C2.87529 25.8376 4.21647 24.9059 6.78588 24.9059C9.83529 24.9059 11.2047 26.4588 11.2047 28.4353H8.94588C8.94588 27.2212 8.01412 26.8824 6.78588 26.8824C5.76941 26.8824 5.13412 27.1082 5.13412 27.6165C5.13412 28.0682 5.37412 28.2376 6.96941 28.7741C8.80471 29.3953 11.6141 30.1859 11.6141 32.2612ZM12.3257 31.4282C12.3257 28.9435 14.1046 27.7294 16.3493 27.7294C18.5799 27.7294 20.3587 28.9435 20.3587 31.4282C20.3587 33.9271 18.5799 35.1412 16.3493 35.1412C14.1046 35.1412 12.3257 33.9271 12.3257 31.4282ZM14.5846 31.4282C14.5846 32.6282 15.2763 33.1647 16.3493 33.1647C17.4081 33.1647 18.0999 32.6282 18.0999 31.4282C18.0999 30.2424 17.4081 29.7059 16.3493 29.7059C15.2763 29.7059 14.5846 30.2424 14.5846 31.4282ZM21.0665 31.4282C21.0665 29.0565 22.6901 27.7294 24.963 27.7294C26.9113 27.7294 28.6901 28.7882 28.7889 30.8212H26.5301C26.4454 30.1859 25.8665 29.7059 24.963 29.7059C23.8901 29.7059 23.3254 30.3412 23.3254 31.4282C23.3254 32.5294 23.8901 33.1647 24.963 33.1647C25.8665 33.1647 26.4454 32.6847 26.5301 32.0494H28.7889C28.6901 34.0824 26.9113 35.1412 24.963 35.1412C22.6901 35.1412 21.0665 33.8141 21.0665 31.4282ZM32.2747 27.1647C31.4418 27.1647 30.9477 26.7694 30.9477 26.0353C30.9477 25.3153 31.4418 24.9059 32.2747 24.9059C33.1077 24.9059 33.63 25.3153 33.63 26.0353C33.63 26.7694 33.1077 27.1647 32.2747 27.1647ZM35.5642 35H29.3524V33.0235H31.3712V29.7624L29.6347 29.8471V27.8706L32.3171 27.7294C33.1077 27.6871 33.5453 28.1247 33.5453 28.9153V33.0235H35.5642V35ZM36.2733 33.0518C36.2733 31.8235 37.0075 31.1035 39.1251 30.8071L41.3698 30.4965C41.3698 29.9176 40.9181 29.5647 39.9439 29.5647C39.0404 29.5647 38.5322 29.9459 38.5322 30.5953H36.4145C36.4145 28.7882 37.9533 27.7294 39.9439 27.7294C41.9063 27.7294 43.6286 28.6753 43.6286 31.0188V33.0235H44.6592V35H43.0922C42.4145 35 42.0333 34.6188 42.0333 33.9412V33.8L42.3863 32.9529H41.8216C41.5533 34.1388 40.8616 35.1412 38.871 35.1412C36.6545 35.1412 36.2733 33.7859 36.2733 33.0518ZM38.5322 32.6282C38.5322 33.0376 38.9275 33.1647 39.3086 33.1647C40.551 33.1647 41.3698 32.6424 41.3698 31.7671L39.5486 32.0212C38.871 32.12 38.5322 32.2188 38.5322 32.6282ZM51.4294 35H45.2176V33.0235H47.1941V26.5153L45.5 26.6V24.6235L48.2247 24.5247C49.0153 24.4965 49.4529 24.92 49.4529 25.7106V33.0235H51.4294V35Z" fill="white"/>
<ellipse cx="32" cy="25.5" rx="4" ry="2" fill="#040404"/>
<circle cx="32" cy="24" r="2" fill="#66FF00"/>
</svg>
